<svg width="32" height="32" viewBox="0 0 32 32" fill="none" xmlns="http://www.w3.org/2000/svg">
<g clip-path="url(#clip0)">
<path d="M24.768 17.936C23.888 13.505 28.0928 10.9066 28.0928 10.9066C28.0928 10.9066 26.4533 8.53863 23.7013 7.93063C20.9493 7.31836 19.5723 8.0789 18.1984 8.65596C16.8224 9.2277 16.1355 9.2277 16.1355 9.2277C14.1504 9.2277 12.6987 7.12636 8.91306 8.08636C6.30933 8.74343 3.56373 11.7514 3.06773 15.344C2.57066 18.9354 3.6416 23.5189 5.70453 27.0709C7.7696 30.625 9.87093 31.9626 11.3611 32C12.8512 32.0373 14.3413 30.9312 16.1376 30.6602C17.9339 30.3978 19.0368 31.3141 20.7989 31.8101C22.5568 32.3061 23.1712 31.8432 25.1904 30.1248C27.2171 28.4064 29.0549 23.473 29.0549 23.473C29.0549 23.473 25.6491 22.3722 24.768 17.936Z" fill="black"/>
<path d="M20.8725 5.06338C22.8224 3.07404 22.16 0.000976562 22.16 0.000976562C22.16 0.000976562 19.4229 0.477777 17.5893 2.38818C15.7536 4.30071 16.0576 7.31511 16.0576 7.31511C16.0576 7.31511 18.9205 7.05058 20.8725 5.06338Z" fill="black"/>
</g>
<defs>
<clipPath id="clip0">
<rect width="32" height="32" fill="white"/>
</clipPath>
</defs>
</svg>
