<?xml version="1.0" ?><svg viewBox="0 0 512 512" xmlns="http://www.w3.org/2000/svg"><g id="Cherry"><path d="M396.45,304.68a70.16,70.16,0,0,0-87.2-29.91c-17.91-27.95-31.17-54.15-39.42-77.88-4.2-12.06-7-23.41-7.93-32.2A206.71,206.71,0,0,1,288.2,138a174,174,0,0,1,29.3-20,8.5,8.5,0,1,0-8.06-15A192,192,0,0,0,277.27,125a216.35,216.35,0,0,0-20.22,19.4c-16.71-16.34-47.39-23.09-78.7-17.21-31.92,6-58.47,24-67.64,45.86a7,7,0,0,0,1.42,7.58c12.6,13,33.86,20.27,57.45,20.27a120.62,120.62,0,0,0,22.23-2.09h0a117,117,0,0,0,33.46-11.63A348.58,348.58,0,0,0,189,270.78a70.15,70.15,0,0,0-30.88,136.74,70.51,70.51,0,0,0,18.27,2.42,70.17,70.17,0,0,0,28.84-134.09C208.5,264,221,222.78,248,183.18c1.47,6.06,3.39,12.53,5.74,19.3,8.6,24.72,22.27,51.83,40.6,80.58a70.15,70.15,0,0,0,23.16,124.46,70.58,70.58,0,0,0,18.28,2.42,70.18,70.18,0,0,0,60.64-105.26Zm-181,36.77a8.51,8.51,0,0,1,6,10.41,46.83,46.83,0,0,1-45.15,34.68,8.5,8.5,0,1,1,0-17,29.81,29.81,0,0,0,28.73-22.08A8.51,8.51,0,0,1,215.48,341.45Zm165.39,10.41a46.82,46.82,0,0,1-45.15,34.68,8.5,8.5,0,0,1,0-17,29.8,29.8,0,0,0,28.73-22.08,8.5,8.5,0,1,1,16.42,4.4Z"/></g></svg>