<?xml version="1.0" ?><svg viewBox="0 0 32 32" xmlns="http://www.w3.org/2000/svg"><title/><g data-name="chocolate 7" id="chocolate_7"><path d="M28,15H27V3a1,1,0,0,0-1-1H6A1,1,0,0,0,5,3V15H4a1,1,0,0,0-1,1v5a1,1,0,0,0,.68.95L5,22.39V29a1,1,0,0,0,1,1H26a1,1,0,0,0,1-1V22.82l.8.16a1,1,0,0,0,.83-.21A1,1,0,0,0,29,22V16A1,1,0,0,0,28,15ZM17,15V12h8v3ZM25,4v6H17V4ZM7,4h8v6H7Zm0,8h8v3H7ZM25,28H7V23.05l2.68.9A1.19,1.19,0,0,0,10,24a1,1,0,0,0,.35-.06L18.08,21,25,22.42Zm2-7.22L18.2,19a1,1,0,0,0-.55,0L10,21.94,5,20.28V17H27Z"/></g></svg>