<svg width="50" height="50" viewBox="0 0 50 50" fill="none" xmlns="http://www.w3.org/2000/svg">
<path d="M31.5141 12.4062H18.3617C15.0704 12.4062 12.3925 15.0841 12.3925 18.3754V31.6485C12.3925 34.9398 15.0704 37.6177 18.3617 37.6177H31.5141C34.8054 37.6177 37.4833 34.9398 37.4833 31.6485V18.3754C37.4833 15.0841 34.8054 12.4062 31.5141 12.4062ZM24.963 32.9596C20.5016 32.9596 16.8722 29.3687 16.8722 24.9549C16.8722 20.5412 20.5021 16.9503 24.963 16.9503C29.4239 16.9503 33.0538 20.5412 33.0538 24.9549C33.0538 29.3687 29.4244 32.9596 24.963 32.9596ZM33.1978 18.5265C32.1463 18.5265 31.2941 17.6742 31.2941 16.6228C31.2941 15.5713 32.1463 14.7191 33.1978 14.7191C34.2493 14.7191 35.1015 15.5713 35.1015 16.6228C35.1015 17.6742 34.2493 18.5265 33.1978 18.5265Z" fill="black"/>
<path d="M25 0C11.193 0 0 11.193 0 25C0 38.807 11.193 50 25 50C38.807 50 50 38.807 50 25C50 11.193 38.807 0 25 0ZM40.4359 31.648C40.4359 36.5677 36.4333 40.5697 31.5141 40.5697H18.3617C13.442 40.5697 9.43989 36.5672 9.43989 31.648V18.3748C9.43989 13.4551 13.4425 9.45307 18.3617 9.45307H31.5141C36.4338 9.45307 40.4359 13.4556 40.4359 18.3748V31.648Z" fill="black"/>
<path d="M24.963 19.897C22.1265 19.897 19.8192 22.1657 19.8192 24.9546C19.8192 27.7434 22.1265 30.0122 24.963 30.0122C27.7995 30.0122 30.1068 27.7434 30.1068 24.9546C30.1068 22.1657 27.7995 19.897 24.963 19.897Z" fill="black"/>
</svg>
