<svg width="60" height="60" viewBox="0 0 60 60" fill="none" xmlns="http://www.w3.org/2000/svg">
<path d="M30 60C13.5 60 0 46.5 0 30C0 13.5 13.5 0 30 0C46.5 0 60 13.5 60 30C60 46.5 46.5 60 30 60ZM30 5C16.25 5 5 16.25 5 30C5 43.75 16.25 55 30 55C43.75 55 55 43.75 55 30C55 16.25 43.75 5 30 5Z" fill="black"/>
<path d="M37.5 35C36.75 35 36.25 34.75 35.75 34.25L30 28.5L24.25 34.25C23.25 35.25 21.75 35.25 20.75 34.25C19.75 33.25 19.75 31.75 20.75 30.75L28.25 23.25C29.25 22.25 30.75 22.25 31.75 23.25L39.25 30.75C40.25 31.75 40.25 33.25 39.25 34.25C38.75 34.75 38.25 35 37.5 35Z" fill="black"/>
</svg>
